<svg width="128" height="128" viewBox="0 0 128 128" fill="none" xmlns="http://www.w3.org/2000/svg">
    <rect width="128" height="128" rx="20" fill="#2C875A"/>
    <path d="M21.4743 56.8235H22.886V58.2353H21.4743V56.8235ZM22.886 56.8235H24.2978V58.2353H22.886V56.8235ZM24.2978 56.8235H25.7096V58.2353H24.2978V56.8235ZM24.2978 58.2353H25.7096V59.6471H24.2978V58.2353ZM24.2978 59.6471H25.7096V61.0588H24.2978V59.6471ZM24.2978 61.0588H25.7096V62.4706H24.2978V61.0588ZM24.2978 62.4706H25.7096V63.8824H24.2978V62.4706ZM24.2978 63.8824H25.7096V65.2941H24.2978V63.8824ZM24.2978 65.2941H25.7096V66.7059H24.2978V65.2941ZM25.7096 58.2353H27.1213V59.6471H25.7096V58.2353ZM25.7096 56.8235H27.1213V58.2353H25.7096V56.8235ZM25.7096 59.6471H27.1213V61.0588H25.7096V59.6471ZM24.2978 66.7059H25.7096V68.1176H24.2978V66.7059ZM24.2978 68.1176H25.7096V69.5294H24.2978V68.1176ZM25.7096 66.7059H27.1213V68.1176H25.7096V66.7059ZM25.7096 65.2941H27.1213V66.7059H25.7096V65.2941ZM25.7096 63.8824H27.1213V65.2941H25.7096V63.8824ZM25.7096 62.4706H27.1213V63.8824H25.7096V62.4706ZM25.7096 61.0588H27.1213V62.4706H25.7096V61.0588ZM25.7096 68.1176H27.1213V69.5294H25.7096V68.1176ZM25.7096 69.5294H27.1213V70.9412H25.7096V69.5294ZM24.2978 69.5294H25.7096V70.9412H24.2978V69.5294ZM22.886 69.5294H24.2978V70.9412H22.886V69.5294ZM21.4743 69.5294H22.886V70.9412H21.4743V69.5294ZM21.4743 68.1176H22.886V69.5294H21.4743V68.1176ZM21.4743 66.7059H22.886V68.1176H21.4743V66.7059ZM21.4743 65.2941H22.886V66.7059H21.4743V65.2941ZM21.4743 63.8824H22.886V65.2941H21.4743V63.8824ZM21.4743 62.4706H22.886V63.8824H21.4743V62.4706ZM21.4743 61.0588H22.886V62.4706H21.4743V61.0588ZM22.886 61.0588H24.2978V62.4706H22.886V61.0588ZM22.886 59.6471H24.2978V61.0588H22.886V59.6471ZM22.886 58.2353H24.2978V59.6471H22.886V58.2353ZM21.4743 59.6471H22.886V61.0588H21.4743V59.6471ZM21.4743 58.2353H22.886V59.6471H21.4743V58.2353ZM22.886 62.4706H24.2978V63.8824H22.886V62.4706ZM22.886 63.8824H24.2978V65.2941H22.886V63.8824ZM22.886 65.2941H24.2978V66.7059H22.886V65.2941ZM22.886 66.7059H24.2978V68.1176H22.886V66.7059ZM22.886 68.1176H24.2978V69.5294H22.886V68.1176ZM32.7684 56.8235H34.1801V58.2353H32.7684V56.8235ZM34.1801 56.8235H35.5919V58.2353H34.1801V56.8235ZM35.5919 56.8235H37.0037V58.2353H35.5919V56.8235ZM35.5919 58.2353H37.0037V59.6471H35.5919V58.2353ZM34.1801 58.2353H35.5919V59.6471H34.1801V58.2353ZM31.3566 56.8235H32.7684V58.2353H31.3566V56.8235ZM31.3566 58.2353H32.7684V59.6471H31.3566V58.2353ZM31.3566 59.6471H32.7684V61.0588H31.3566V59.6471ZM31.3566 61.0588H32.7684V62.4706H31.3566V61.0588ZM31.3566 65.2941H32.7684V66.7059H31.3566V65.2941ZM31.3566 63.8824H32.7684V65.2941H31.3566V63.8824ZM31.3566 62.4706H32.7684V63.8824H31.3566V62.4706ZM31.3566 66.7059H32.7684V68.1176H31.3566V66.7059ZM31.3566 68.1176H32.7684V69.5294H31.3566V68.1176ZM31.3566 69.5294H32.7684V70.9412H31.3566V69.5294ZM31.3566 70.9412H32.7684V72.3529H31.3566V70.9412ZM32.7684 70.9412H34.1801V72.3529H32.7684V70.9412ZM34.1801 70.9412H35.5919V72.3529H34.1801V70.9412ZM34.1801 69.5294H35.5919V70.9412H34.1801V69.5294ZM34.1801 68.1176H35.5919V69.5294H34.1801V68.1176ZM35.5919 68.1176H37.0037V69.5294H35.5919V68.1176ZM35.5919 66.7059H37.0037V68.1176H35.5919V66.7059ZM35.5919 65.2941H37.0037V66.7059H35.5919V65.2941ZM35.5919 63.8824H37.0037V65.2941H35.5919V63.8824ZM35.5919 62.4706H37.0037V63.8824H35.5919V62.4706ZM35.5919 61.0588H37.0037V62.4706H35.5919V61.0588ZM35.5919 59.6471H37.0037V61.0588H35.5919V59.6471ZM34.1801 59.6471H35.5919V61.0588H34.1801V59.6471ZM34.1801 61.0588H35.5919V62.4706H34.1801V61.0588ZM32.7684 62.4706H34.1801V63.8824H32.7684V62.4706ZM32.7684 63.8824H34.1801V65.2941H32.7684V63.8824ZM32.7684 65.2941H34.1801V66.7059H32.7684V65.2941ZM32.7684 66.7059H34.1801V68.1176H32.7684V66.7059ZM32.7684 68.1176H34.1801V69.5294H32.7684V68.1176ZM32.7684 69.5294H34.1801V70.9412H32.7684V69.5294ZM34.1801 66.7059H35.5919V68.1176H34.1801V66.7059ZM34.1801 65.2941H35.5919V66.7059H34.1801V65.2941ZM34.1801 63.8824H35.5919V65.2941H34.1801V63.8824ZM34.1801 62.4706H35.5919V63.8824H34.1801V62.4706ZM32.7684 58.2353H34.1801V59.6471H32.7684V58.2353ZM32.7684 59.6471H34.1801V61.0588H32.7684V59.6471ZM32.7684 61.0588H34.1801V62.4706H32.7684V61.0588ZM42.6507 56.8235H44.0625V58.2353H42.6507V56.8235ZM44.0625 56.8235H45.4743V58.2353H44.0625V56.8235ZM45.4743 56.8235H46.886V58.2353H45.4743V56.8235ZM41.239 56.8235H42.6507V58.2353H41.239V56.8235ZM41.239 58.2353H42.6507V59.6471H41.239V58.2353ZM41.239 59.6471H42.6507V61.0588H41.239V59.6471ZM41.239 61.0588H42.6507V62.4706H41.239V61.0588ZM41.239 62.4706H42.6507V63.8824H41.239V62.4706ZM41.239 63.8824H42.6507V65.2941H41.239V63.8824ZM41.239 65.2941H42.6507V66.7059H41.239V65.2941ZM41.239 66.7059H42.6507V68.1176H41.239V66.7059ZM42.6507 66.7059H44.0625V68.1176H42.6507V66.7059ZM42.6507 65.2941H44.0625V66.7059H42.6507V65.2941ZM44.0625 65.2941H45.4743V66.7059H44.0625V65.2941ZM45.4743 65.2941H46.886V66.7059H45.4743V65.2941ZM45.4743 63.8824H46.886V65.2941H45.4743V63.8824ZM45.4743 62.4706H46.886V63.8824H45.4743V62.4706ZM45.4743 61.0588H46.886V62.4706H45.4743V61.0588ZM45.4743 59.6471H46.886V61.0588H45.4743V59.6471ZM45.4743 58.2353H46.886V59.6471H45.4743V58.2353ZM44.0625 58.2353H45.4743V59.6471H44.0625V58.2353ZM42.6507 58.2353H44.0625V59.6471H42.6507V58.2353ZM42.6507 59.6471H44.0625V61.0588H42.6507V59.6471ZM42.6507 61.0588H44.0625V62.4706H42.6507V61.0588ZM42.6507 62.4706H44.0625V63.8824H42.6507V62.4706ZM44.0625 63.8824H45.4743V65.2941H44.0625V63.8824ZM44.0625 62.4706H45.4743V63.8824H44.0625V62.4706ZM44.0625 61.0588H45.4743V62.4706H44.0625V61.0588ZM44.0625 59.6471H45.4743V61.0588H44.0625V59.6471ZM41.239 68.1176H42.6507V69.5294H41.239V68.1176ZM42.6507 68.1176H44.0625V69.5294H42.6507V68.1176ZM42.6507 63.8824H44.0625V65.2941H42.6507V63.8824ZM42.6507 69.5294H44.0625V70.9412H42.6507V69.5294ZM44.0625 69.5294H45.4743V70.9412H44.0625V69.5294ZM45.4743 69.5294H46.886V70.9412H45.4743V69.5294ZM45.4743 68.1176H46.886V69.5294H45.4743V68.1176ZM45.4743 66.7059H46.886V68.1176H45.4743V66.7059ZM44.0625 66.7059H45.4743V68.1176H44.0625V66.7059ZM44.0625 68.1176H45.4743V69.5294H44.0625V68.1176ZM41.239 69.5294H42.6507V70.9412H41.239V69.5294ZM29.9449 70.9412H31.3566V72.3529H29.9449V70.9412ZM29.9449 72.3529H31.3566V73.7647H29.9449V72.3529ZM28.5331 72.3529H29.9449V73.7647H28.5331V72.3529ZM27.1213 72.3529H28.5331V73.7647H27.1213V72.3529ZM27.1213 70.9412H28.5331V72.3529H27.1213V70.9412ZM25.7096 70.9412H27.1213V72.3529H25.7096V70.9412ZM25.7096 72.3529H27.1213V73.7647H25.7096V72.3529ZM27.1213 73.7647H28.5331V75.1765H27.1213V73.7647ZM28.5331 73.7647H29.9449V75.1765H28.5331V73.7647ZM29.9449 73.7647H31.3566V75.1765H29.9449V73.7647ZM31.3566 72.3529H32.7684V73.7647H31.3566V72.3529ZM35.5919 69.5294H37.0037V70.9412H35.5919V69.5294ZM37.0037 70.9412H38.4154V72.3529H37.0037V70.9412ZM38.4154 72.3529H39.8272V73.7647H38.4154V72.3529ZM41.239 70.9412H42.6507V72.3529H41.239V70.9412ZM41.239 72.3529H42.6507V73.7647H41.239V72.3529ZM39.8272 72.3529H41.239V73.7647H39.8272V72.3529ZM42.6507 72.3529H44.0625V73.7647H42.6507V72.3529ZM42.6507 70.9412H44.0625V72.3529H42.6507V70.9412ZM44.0625 70.9412H45.4743V72.3529H44.0625V70.9412ZM45.4743 70.9412H46.886V72.3529H45.4743V70.9412ZM42.6507 73.7647H44.0625V75.1765H42.6507V73.7647ZM41.239 73.7647H42.6507V75.1765H41.239V73.7647ZM41.239 75.1765H42.6507V76.5882H41.239V75.1765ZM39.8272 75.1765H41.239V76.5882H39.8272V75.1765ZM39.8272 76.5882H41.239V78H39.8272V76.5882ZM38.4154 76.5882H39.8272V78H38.4154V76.5882ZM38.4154 75.1765H39.8272V76.5882H38.4154V75.1765ZM37.0037 75.1765H38.4154V76.5882H37.0037V75.1765ZM37.0037 73.7647H38.4154V75.1765H37.0037V73.7647ZM35.5919 73.7647H37.0037V75.1765H35.5919V73.7647ZM35.5919 72.3529H37.0037V73.7647H35.5919V72.3529ZM34.1801 72.3529H35.5919V73.7647H34.1801V72.3529ZM32.7684 72.3529H34.1801V73.7647H32.7684V72.3529ZM31.3566 73.7647H32.7684V75.1765H31.3566V73.7647ZM29.9449 75.1765H31.3566V76.5882H29.9449V75.1765ZM28.5331 76.5882H29.9449V78H28.5331V76.5882ZM28.5331 75.1765H29.9449V76.5882H28.5331V75.1765ZM27.1213 75.1765H28.5331V76.5882H27.1213V75.1765ZM25.7096 73.7647H27.1213V75.1765H25.7096V73.7647ZM24.2978 72.3529H25.7096V73.7647H24.2978V72.3529ZM24.2978 70.9412H25.7096V72.3529H24.2978V70.9412ZM22.886 70.9412H24.2978V72.3529H22.886V70.9412ZM21.4743 70.9412H22.886V72.3529H21.4743V70.9412ZM35.5919 70.9412H37.0037V72.3529H35.5919V70.9412ZM37.0037 72.3529H38.4154V73.7647H37.0037V72.3529ZM38.4154 73.7647H39.8272V75.1765H38.4154V73.7647ZM39.8272 73.7647H41.239V75.1765H39.8272V73.7647ZM44.0625 72.3529H45.4743V73.7647H44.0625V72.3529ZM39.8272 70.9412H41.239V72.3529H39.8272V70.9412ZM22.886 72.3529H24.2978V73.7647H22.886V72.3529ZM24.2978 73.7647H25.7096V75.1765H24.2978V73.7647ZM25.7096 75.1765H27.1213V76.5882H25.7096V75.1765ZM27.1213 76.5882H28.5331V78H27.1213V76.5882ZM51.0993 56.8235H52.511V58.2353H51.0993V56.8235ZM52.511 56.8235H53.9228V58.2353H52.511V56.8235ZM53.9228 56.8235H55.3346V58.2353H53.9228V56.8235ZM53.9228 58.2353H55.3346V59.6471H53.9228V58.2353ZM53.9228 59.6471H55.3346V61.0588H53.9228V59.6471ZM53.9228 61.0588H55.3346V62.4706H53.9228V61.0588ZM53.9228 62.4706H55.3346V63.8824H53.9228V62.4706ZM53.9228 63.8824H55.3346V65.2941H53.9228V63.8824ZM53.9228 65.2941H55.3346V66.7059H53.9228V65.2941ZM55.3346 58.2353H56.7463V59.6471H55.3346V58.2353ZM55.3346 56.8235H56.7463V58.2353H55.3346V56.8235ZM55.3346 59.6471H56.7463V61.0588H55.3346V59.6471ZM53.9228 66.7059H55.3346V68.1176H53.9228V66.7059ZM53.9228 68.1176H55.3346V69.5294H53.9228V68.1176ZM55.3346 66.7059H56.7463V68.1176H55.3346V66.7059ZM55.3346 65.2941H56.7463V66.7059H55.3346V65.2941ZM55.3346 63.8824H56.7463V65.2941H55.3346V63.8824ZM55.3346 62.4706H56.7463V63.8824H55.3346V62.4706ZM55.3346 61.0588H56.7463V62.4706H55.3346V61.0588ZM55.3346 68.1176H56.7463V69.5294H55.3346V68.1176ZM55.3346 69.5294H56.7463V70.9412H55.3346V69.5294ZM53.9228 69.5294H55.3346V70.9412H53.9228V69.5294ZM52.511 69.5294H53.9228V70.9412H52.511V69.5294ZM51.0993 69.5294H52.511V70.9412H51.0993V69.5294ZM51.0993 68.1176H52.511V69.5294H51.0993V68.1176ZM51.0993 66.7059H52.511V68.1176H51.0993V66.7059ZM51.0993 65.2941H52.511V66.7059H51.0993V65.2941ZM51.0993 63.8824H52.511V65.2941H51.0993V63.8824ZM51.0993 62.4706H52.511V63.8824H51.0993V62.4706ZM51.0993 61.0588H52.511V62.4706H51.0993V61.0588ZM52.511 61.0588H53.9228V62.4706H52.511V61.0588ZM52.511 59.6471H53.9228V61.0588H52.511V59.6471ZM52.511 58.2353H53.9228V59.6471H52.511V58.2353ZM51.0993 59.6471H52.511V61.0588H51.0993V59.6471ZM51.0993 58.2353H52.511V59.6471H51.0993V58.2353ZM52.511 62.4706H53.9228V63.8824H52.511V62.4706ZM52.511 63.8824H53.9228V65.2941H52.511V63.8824ZM52.511 65.2941H53.9228V66.7059H52.511V65.2941ZM52.511 66.7059H53.9228V68.1176H52.511V66.7059ZM52.511 68.1176H53.9228V69.5294H52.511V68.1176ZM62.3934 56.8235H63.8051V58.2353H62.3934V56.8235ZM63.8051 56.8235H65.2169V58.2353H63.8051V56.8235ZM65.2169 56.8235H66.6287V58.2353H65.2169V56.8235ZM65.2169 58.2353H66.6287V59.6471H65.2169V58.2353ZM63.8051 58.2353H65.2169V59.6471H63.8051V58.2353ZM60.9816 56.8235H62.3934V58.2353H60.9816V56.8235ZM60.9816 58.2353H62.3934V59.6471H60.9816V58.2353ZM60.9816 59.6471H62.3934V61.0588H60.9816V59.6471ZM60.9816 61.0588H62.3934V62.4706H60.9816V61.0588ZM60.9816 65.2941H62.3934V66.7059H60.9816V65.2941ZM60.9816 63.8824H62.3934V65.2941H60.9816V63.8824ZM60.9816 62.4706H62.3934V63.8824H60.9816V62.4706ZM60.9816 66.7059H62.3934V68.1176H60.9816V66.7059ZM60.9816 68.1176H62.3934V69.5294H60.9816V68.1176ZM60.9816 69.5294H62.3934V70.9412H60.9816V69.5294ZM60.9816 70.9412H62.3934V72.3529H60.9816V70.9412ZM62.3934 70.9412H63.8051V72.3529H62.3934V70.9412ZM63.8051 70.9412H65.2169V72.3529H63.8051V70.9412ZM63.8051 69.5294H65.2169V70.9412H63.8051V69.5294ZM63.8051 68.1176H65.2169V69.5294H63.8051V68.1176ZM65.2169 68.1176H66.6287V69.5294H65.2169V68.1176ZM65.2169 66.7059H66.6287V68.1176H65.2169V66.7059ZM65.2169 65.2941H66.6287V66.7059H65.2169V65.2941ZM65.2169 63.8824H66.6287V65.2941H65.2169V63.8824ZM65.2169 62.4706H66.6287V63.8824H65.2169V62.4706ZM65.2169 61.0588H66.6287V62.4706H65.2169V61.0588ZM65.2169 59.6471H66.6287V61.0588H65.2169V59.6471ZM63.8051 59.6471H65.2169V61.0588H63.8051V59.6471ZM63.8051 61.0588H65.2169V62.4706H63.8051V61.0588ZM62.3934 62.4706H63.8051V63.8824H62.3934V62.4706ZM62.3934 63.8824H63.8051V65.2941H62.3934V63.8824ZM62.3934 65.2941H63.8051V66.7059H62.3934V65.2941ZM62.3934 66.7059H63.8051V68.1176H62.3934V66.7059ZM62.3934 68.1176H63.8051V69.5294H62.3934V68.1176ZM62.3934 69.5294H63.8051V70.9412H62.3934V69.5294ZM63.8051 66.7059H65.2169V68.1176H63.8051V66.7059ZM63.8051 65.2941H65.2169V66.7059H63.8051V65.2941ZM63.8051 63.8824H65.2169V65.2941H63.8051V63.8824ZM63.8051 62.4706H65.2169V63.8824H63.8051V62.4706ZM62.3934 58.2353H63.8051V59.6471H62.3934V58.2353ZM62.3934 59.6471H63.8051V61.0588H62.3934V59.6471ZM62.3934 61.0588H63.8051V62.4706H62.3934V61.0588ZM72.2757 56.8235H73.6875V58.2353H72.2757V56.8235ZM73.6875 56.8235H75.0993V58.2353H73.6875V56.8235ZM75.0993 56.8235H76.511V58.2353H75.0993V56.8235ZM70.864 56.8235H72.2757V58.2353H70.864V56.8235ZM70.864 58.2353H72.2757V59.6471H70.864V58.2353ZM70.864 59.6471H72.2757V61.0588H70.864V59.6471ZM70.864 61.0588H72.2757V62.4706H70.864V61.0588ZM70.864 62.4706H72.2757V63.8824H70.864V62.4706ZM70.864 63.8824H72.2757V65.2941H70.864V63.8824ZM70.864 65.2941H72.2757V66.7059H70.864V65.2941ZM70.864 66.7059H72.2757V68.1176H70.864V66.7059ZM72.2757 66.7059H73.6875V68.1176H72.2757V66.7059ZM72.2757 65.2941H73.6875V66.7059H72.2757V65.2941ZM73.6875 65.2941H75.0993V66.7059H73.6875V65.2941ZM75.0993 65.2941H76.511V66.7059H75.0993V65.2941ZM75.0993 63.8824H76.511V65.2941H75.0993V63.8824ZM75.0993 62.4706H76.511V63.8824H75.0993V62.4706ZM75.0993 61.0588H76.511V62.4706H75.0993V61.0588ZM75.0993 59.6471H76.511V61.0588H75.0993V59.6471ZM75.0993 58.2353H76.511V59.6471H75.0993V58.2353ZM73.6875 58.2353H75.0993V59.6471H73.6875V58.2353ZM72.2757 58.2353H73.6875V59.6471H72.2757V58.2353ZM72.2757 59.6471H73.6875V61.0588H72.2757V59.6471ZM72.2757 61.0588H73.6875V62.4706H72.2757V61.0588ZM72.2757 62.4706H73.6875V63.8824H72.2757V62.4706ZM73.6875 63.8824H75.0993V65.2941H73.6875V63.8824ZM73.6875 62.4706H75.0993V63.8824H73.6875V62.4706ZM73.6875 61.0588H75.0993V62.4706H73.6875V61.0588ZM73.6875 59.6471H75.0993V61.0588H73.6875V59.6471ZM70.864 68.1176H72.2757V69.5294H70.864V68.1176ZM72.2757 68.1176H73.6875V69.5294H72.2757V68.1176ZM72.2757 63.8824H73.6875V65.2941H72.2757V63.8824ZM72.2757 69.5294H73.6875V70.9412H72.2757V69.5294ZM73.6875 69.5294H75.0993V70.9412H73.6875V69.5294ZM75.0993 69.5294H76.511V70.9412H75.0993V69.5294ZM75.0993 68.1176H76.511V69.5294H75.0993V68.1176ZM75.0993 66.7059H76.511V68.1176H75.0993V66.7059ZM73.6875 66.7059H75.0993V68.1176H73.6875V66.7059ZM73.6875 68.1176H75.0993V69.5294H73.6875V68.1176ZM70.864 69.5294H72.2757V70.9412H70.864V69.5294ZM59.5699 70.9412H60.9816V72.3529H59.5699V70.9412ZM59.5699 72.3529H60.9816V73.7647H59.5699V72.3529ZM58.1581 72.3529H59.5699V73.7647H58.1581V72.3529ZM56.7463 72.3529H58.1581V73.7647H56.7463V72.3529ZM56.7463 70.9412H58.1581V72.3529H56.7463V70.9412ZM55.3346 70.9412H56.7463V72.3529H55.3346V70.9412ZM55.3346 72.3529H56.7463V73.7647H55.3346V72.3529ZM56.7463 73.7647H58.1581V75.1765H56.7463V73.7647ZM58.1581 73.7647H59.5699V75.1765H58.1581V73.7647ZM59.5699 73.7647H60.9816V75.1765H59.5699V73.7647ZM60.9816 72.3529H62.3934V73.7647H60.9816V72.3529ZM65.2169 69.5294H66.6287V70.9412H65.2169V69.5294ZM66.6287 70.9412H68.0404V72.3529H66.6287V70.9412ZM68.0404 72.3529H69.4522V73.7647H68.0404V72.3529ZM70.864 70.9412H72.2757V72.3529H70.864V70.9412ZM70.864 72.3529H72.2757V73.7647H70.864V72.3529ZM69.4522 72.3529H70.864V73.7647H69.4522V72.3529ZM72.2757 72.3529H73.6875V73.7647H72.2757V72.3529ZM72.2757 70.9412H73.6875V72.3529H72.2757V70.9412ZM73.6875 70.9412H75.0993V72.3529H73.6875V70.9412ZM75.0993 70.9412H76.511V72.3529H75.0993V70.9412ZM72.2757 73.7647H73.6875V75.1765H72.2757V73.7647ZM70.864 73.7647H72.2757V75.1765H70.864V73.7647ZM70.864 75.1765H72.2757V76.5882H70.864V75.1765ZM69.4522 75.1765H70.864V76.5882H69.4522V75.1765ZM69.4522 76.5882H70.864V78H69.4522V76.5882ZM68.0404 76.5882H69.4522V78H68.0404V76.5882ZM68.0404 75.1765H69.4522V76.5882H68.0404V75.1765ZM66.6287 75.1765H68.0404V76.5882H66.6287V75.1765ZM66.6287 73.7647H68.0404V75.1765H66.6287V73.7647ZM65.2169 73.7647H66.6287V75.1765H65.2169V73.7647ZM65.2169 72.3529H66.6287V73.7647H65.2169V72.3529ZM63.8051 72.3529H65.2169V73.7647H63.8051V72.3529ZM62.3934 72.3529H63.8051V73.7647H62.3934V72.3529ZM60.9816 73.7647H62.3934V75.1765H60.9816V73.7647ZM59.5699 75.1765H60.9816V76.5882H59.5699V75.1765ZM58.1581 76.5882H59.5699V78H58.1581V76.5882ZM58.1581 75.1765H59.5699V76.5882H58.1581V75.1765ZM56.7463 75.1765H58.1581V76.5882H56.7463V75.1765ZM55.3346 73.7647H56.7463V75.1765H55.3346V73.7647ZM53.9228 72.3529H55.3346V73.7647H53.9228V72.3529ZM53.9228 70.9412H55.3346V72.3529H53.9228V70.9412ZM52.511 70.9412H53.9228V72.3529H52.511V70.9412ZM51.0993 70.9412H52.511V72.3529H51.0993V70.9412ZM65.2169 70.9412H66.6287V72.3529H65.2169V70.9412ZM66.6287 72.3529H68.0404V73.7647H66.6287V72.3529ZM68.0404 73.7647H69.4522V75.1765H68.0404V73.7647ZM69.4522 73.7647H70.864V75.1765H69.4522V73.7647ZM73.6875 72.3529H75.0993V73.7647H73.6875V72.3529ZM69.4522 70.9412H70.864V72.3529H69.4522V70.9412ZM52.511 72.3529H53.9228V73.7647H52.511V72.3529ZM53.9228 73.7647H55.3346V75.1765H53.9228V73.7647ZM55.3346 75.1765H56.7463V76.5882H55.3346V75.1765ZM56.7463 76.5882H58.1581V78H56.7463V76.5882ZM80.7243 56.8235H82.136V58.2353H80.7243V56.8235ZM82.136 56.8235H83.5478V58.2353H82.136V56.8235ZM83.5478 56.8235H84.9596V58.2353H83.5478V56.8235ZM83.5478 58.2353H84.9596V59.6471H83.5478V58.2353ZM83.5478 59.6471H84.9596V61.0588H83.5478V59.6471ZM83.5478 61.0588H84.9596V62.4706H83.5478V61.0588ZM83.5478 62.4706H84.9596V63.8824H83.5478V62.4706ZM83.5478 63.8824H84.9596V65.2941H83.5478V63.8824ZM83.5478 65.2941H84.9596V66.7059H83.5478V65.2941ZM84.9596 58.2353H86.3713V59.6471H84.9596V58.2353ZM84.9596 56.8235H86.3713V58.2353H84.9596V56.8235ZM84.9596 59.6471H86.3713V61.0588H84.9596V59.6471ZM83.5478 66.7059H84.9596V68.1176H83.5478V66.7059ZM83.5478 68.1176H84.9596V69.5294H83.5478V68.1176ZM84.9596 66.7059H86.3713V68.1176H84.9596V66.7059ZM84.9596 65.2941H86.3713V66.7059H84.9596V65.2941ZM84.9596 63.8824H86.3713V65.2941H84.9596V63.8824ZM84.9596 62.4706H86.3713V63.8824H84.9596V62.4706ZM84.9596 61.0588H86.3713V62.4706H84.9596V61.0588ZM84.9596 68.1176H86.3713V69.5294H84.9596V68.1176ZM84.9596 69.5294H86.3713V70.9412H84.9596V69.5294ZM83.5478 69.5294H84.9596V70.9412H83.5478V69.5294ZM82.136 69.5294H83.5478V70.9412H82.136V69.5294ZM80.7243 69.5294H82.136V70.9412H80.7243V69.5294ZM80.7243 68.1176H82.136V69.5294H80.7243V68.1176ZM80.7243 66.7059H82.136V68.1176H80.7243V66.7059ZM80.7243 65.2941H82.136V66.7059H80.7243V65.2941ZM80.7243 63.8824H82.136V65.2941H80.7243V63.8824ZM80.7243 62.4706H82.136V63.8824H80.7243V62.4706ZM80.7243 61.0588H82.136V62.4706H80.7243V61.0588ZM82.136 61.0588H83.5478V62.4706H82.136V61.0588ZM82.136 59.6471H83.5478V61.0588H82.136V59.6471ZM82.136 58.2353H83.5478V59.6471H82.136V58.2353ZM80.7243 59.6471H82.136V61.0588H80.7243V59.6471ZM80.7243 58.2353H82.136V59.6471H80.7243V58.2353ZM82.136 62.4706H83.5478V63.8824H82.136V62.4706ZM82.136 63.8824H83.5478V65.2941H82.136V63.8824ZM82.136 65.2941H83.5478V66.7059H82.136V65.2941ZM82.136 66.7059H83.5478V68.1176H82.136V66.7059ZM82.136 68.1176H83.5478V69.5294H82.136V68.1176ZM92.0184 56.8235H93.4301V58.2353H92.0184V56.8235ZM93.4301 56.8235H94.8419V58.2353H93.4301V56.8235ZM94.8419 56.8235H96.2537V58.2353H94.8419V56.8235ZM94.8419 58.2353H96.2537V59.6471H94.8419V58.2353ZM93.4301 58.2353H94.8419V59.6471H93.4301V58.2353ZM90.6066 56.8235H92.0184V58.2353H90.6066V56.8235ZM90.6066 58.2353H92.0184V59.6471H90.6066V58.2353ZM90.6066 59.6471H92.0184V61.0588H90.6066V59.6471ZM90.6066 61.0588H92.0184V62.4706H90.6066V61.0588ZM90.6066 65.2941H92.0184V66.7059H90.6066V65.2941ZM90.6066 63.8824H92.0184V65.2941H90.6066V63.8824ZM90.6066 62.4706H92.0184V63.8824H90.6066V62.4706ZM90.6066 66.7059H92.0184V68.1176H90.6066V66.7059ZM90.6066 68.1176H92.0184V69.5294H90.6066V68.1176ZM90.6066 69.5294H92.0184V70.9412H90.6066V69.5294ZM90.6066 70.9412H92.0184V72.3529H90.6066V70.9412ZM92.0184 70.9412H93.4301V72.3529H92.0184V70.9412ZM93.4301 70.9412H94.8419V72.3529H93.4301V70.9412ZM93.4301 69.5294H94.8419V70.9412H93.4301V69.5294ZM93.4301 68.1176H94.8419V69.5294H93.4301V68.1176ZM94.8419 68.1176H96.2537V69.5294H94.8419V68.1176ZM94.8419 66.7059H96.2537V68.1176H94.8419V66.7059ZM94.8419 65.2941H96.2537V66.7059H94.8419V65.2941ZM94.8419 63.8824H96.2537V65.2941H94.8419V63.8824ZM94.8419 62.4706H96.2537V63.8824H94.8419V62.4706ZM94.8419 61.0588H96.2537V62.4706H94.8419V61.0588ZM94.8419 59.6471H96.2537V61.0588H94.8419V59.6471ZM93.4301 59.6471H94.8419V61.0588H93.4301V59.6471ZM93.4301 61.0588H94.8419V62.4706H93.4301V61.0588ZM92.0184 62.4706H93.4301V63.8824H92.0184V62.4706ZM92.0184 63.8824H93.4301V65.2941H92.0184V63.8824ZM92.0184 65.2941H93.4301V66.7059H92.0184V65.2941ZM92.0184 66.7059H93.4301V68.1176H92.0184V66.7059ZM92.0184 68.1176H93.4301V69.5294H92.0184V68.1176ZM92.0184 69.5294H93.4301V70.9412H92.0184V69.5294ZM93.4301 66.7059H94.8419V68.1176H93.4301V66.7059ZM93.4301 65.2941H94.8419V66.7059H93.4301V65.2941ZM93.4301 63.8824H94.8419V65.2941H93.4301V63.8824ZM93.4301 62.4706H94.8419V63.8824H93.4301V62.4706ZM92.0184 58.2353H93.4301V59.6471H92.0184V58.2353ZM92.0184 59.6471H93.4301V61.0588H92.0184V59.6471ZM92.0184 61.0588H93.4301V62.4706H92.0184V61.0588ZM101.901 56.8235H103.312V58.2353H101.901V56.8235ZM103.312 56.8235H104.724V58.2353H103.312V56.8235ZM104.724 56.8235H106.136V58.2353H104.724V56.8235ZM100.489 56.8235H101.901V58.2353H100.489V56.8235ZM100.489 58.2353H101.901V59.6471H100.489V58.2353ZM100.489 59.6471H101.901V61.0588H100.489V59.6471ZM100.489 61.0588H101.901V62.4706H100.489V61.0588ZM100.489 62.4706H101.901V63.8824H100.489V62.4706ZM100.489 63.8824H101.901V65.2941H100.489V63.8824ZM100.489 65.2941H101.901V66.7059H100.489V65.2941ZM100.489 66.7059H101.901V68.1176H100.489V66.7059ZM101.901 66.7059H103.312V68.1176H101.901V66.7059ZM101.901 65.2941H103.312V66.7059H101.901V65.2941ZM103.312 65.2941H104.724V66.7059H103.312V65.2941ZM104.724 65.2941H106.136V66.7059H104.724V65.2941ZM104.724 63.8824H106.136V65.2941H104.724V63.8824ZM104.724 62.4706H106.136V63.8824H104.724V62.4706ZM104.724 61.0588H106.136V62.4706H104.724V61.0588ZM104.724 59.6471H106.136V61.0588H104.724V59.6471ZM104.724 58.2353H106.136V59.6471H104.724V58.2353ZM103.312 58.2353H104.724V59.6471H103.312V58.2353ZM101.901 58.2353H103.312V59.6471H101.901V58.2353ZM101.901 59.6471H103.312V61.0588H101.901V59.6471ZM101.901 61.0588H103.312V62.4706H101.901V61.0588ZM101.901 62.4706H103.312V63.8824H101.901V62.4706ZM103.312 63.8824H104.724V65.2941H103.312V63.8824ZM103.312 62.4706H104.724V63.8824H103.312V62.4706ZM103.312 61.0588H104.724V62.4706H103.312V61.0588ZM103.312 59.6471H104.724V61.0588H103.312V59.6471ZM100.489 68.1176H101.901V69.5294H100.489V68.1176ZM101.901 68.1176H103.312V69.5294H101.901V68.1176ZM101.901 63.8824H103.312V65.2941H101.901V63.8824ZM101.901 69.5294H103.312V70.9412H101.901V69.5294ZM103.312 69.5294H104.724V70.9412H103.312V69.5294ZM104.724 69.5294H106.136V70.9412H104.724V69.5294ZM104.724 68.1176H106.136V69.5294H104.724V68.1176ZM104.724 66.7059H106.136V68.1176H104.724V66.7059ZM103.312 66.7059H104.724V68.1176H103.312V66.7059ZM103.312 68.1176H104.724V69.5294H103.312V68.1176ZM100.489 69.5294H101.901V70.9412H100.489V69.5294ZM89.1949 70.9412H90.6066V72.3529H89.1949V70.9412ZM89.1949 72.3529H90.6066V73.7647H89.1949V72.3529ZM87.7831 72.3529H89.1949V73.7647H87.7831V72.3529ZM86.3713 72.3529H87.7831V73.7647H86.3713V72.3529ZM86.3713 70.9412H87.7831V72.3529H86.3713V70.9412ZM84.9596 70.9412H86.3713V72.3529H84.9596V70.9412ZM84.9596 72.3529H86.3713V73.7647H84.9596V72.3529ZM86.3713 73.7647H87.7831V75.1765H86.3713V73.7647ZM87.7831 73.7647H89.1949V75.1765H87.7831V73.7647ZM89.1949 73.7647H90.6066V75.1765H89.1949V73.7647ZM90.6066 72.3529H92.0184V73.7647H90.6066V72.3529ZM94.8419 69.5294H96.2537V70.9412H94.8419V69.5294ZM96.2537 70.9412H97.6654V72.3529H96.2537V70.9412ZM97.6654 72.3529H99.0772V73.7647H97.6654V72.3529ZM100.489 70.9412H101.901V72.3529H100.489V70.9412ZM100.489 72.3529H101.901V73.7647H100.489V72.3529ZM99.0772 72.3529H100.489V73.7647H99.0772V72.3529ZM101.901 72.3529H103.312V73.7647H101.901V72.3529ZM101.901 70.9412H103.312V72.3529H101.901V70.9412ZM103.312 70.9412H104.724V72.3529H103.312V70.9412ZM104.724 70.9412H106.136V72.3529H104.724V70.9412ZM101.901 73.7647H103.312V75.1765H101.901V73.7647ZM100.489 73.7647H101.901V75.1765H100.489V73.7647ZM100.489 75.1765H101.901V76.5882H100.489V75.1765ZM99.0772 75.1765H100.489V76.5882H99.0772V75.1765ZM99.0772 76.5882H100.489V78H99.0772V76.5882ZM97.6654 76.5882H99.0772V78H97.6654V76.5882ZM97.6654 75.1765H99.0772V76.5882H97.6654V75.1765ZM96.2537 75.1765H97.6654V76.5882H96.2537V75.1765ZM96.2537 73.7647H97.6654V75.1765H96.2537V73.7647ZM94.8419 73.7647H96.2537V75.1765H94.8419V73.7647ZM94.8419 72.3529H96.2537V73.7647H94.8419V72.3529ZM93.4301 72.3529H94.8419V73.7647H93.4301V72.3529ZM92.0184 72.3529H93.4301V73.7647H92.0184V72.3529ZM90.6066 73.7647H92.0184V75.1765H90.6066V73.7647ZM89.1949 75.1765H90.6066V76.5882H89.1949V75.1765ZM87.7831 76.5882H89.1949V78H87.7831V76.5882ZM87.7831 75.1765H89.1949V76.5882H87.7831V75.1765ZM86.3713 75.1765H87.7831V76.5882H86.3713V75.1765ZM84.9596 73.7647H86.3713V75.1765H84.9596V73.7647ZM83.5478 72.3529H84.9596V73.7647H83.5478V72.3529ZM83.5478 70.9412H84.9596V72.3529H83.5478V70.9412ZM82.136 70.9412H83.5478V72.3529H82.136V70.9412ZM80.7243 70.9412H82.136V72.3529H80.7243V70.9412ZM94.8419 70.9412H96.2537V72.3529H94.8419V70.9412ZM96.2537 72.3529H97.6654V73.7647H96.2537V72.3529ZM97.6654 73.7647H99.0772V75.1765H97.6654V73.7647ZM99.0772 73.7647H100.489V75.1765H99.0772V73.7647ZM103.312 72.3529H104.724V73.7647H103.312V72.3529ZM99.0772 70.9412H100.489V72.3529H99.0772V70.9412ZM82.136 72.3529H83.5478V73.7647H82.136V72.3529ZM83.5478 73.7647H84.9596V75.1765H83.5478V73.7647ZM84.9596 75.1765H86.3713V76.5882H84.9596V75.1765ZM86.3713 76.5882H87.7831V78H86.3713V76.5882Z" fill="white"/>
    <path d="M30.0589 30.0589L97.9413 97.9413M112 64C112 90.5099 90.5099 112 64 112C37.4903 112 16 90.5099 16 64C16 37.4903 37.4903 16 64 16C90.5099 16 112 37.4903 112 64Z" stroke="black" stroke-width="8" stroke-linecap="round"/>
</svg>
